<svg width="440" height="328" viewBox="0 0 440 328" fill="none" xmlns="http://www.w3.org/2000/svg">
<path d="M440 288.112H0V288.332H440V288.112Z" fill="#E6E6E6"/>
<path d="M392.11 293.771H371.65V293.991H392.11V293.771Z" fill="#E6E6E6"/>
<path d="M317.68 298.549H220.502V298.769H317.68V298.549Z" fill="#E6E6E6"/>
<path d="M178.931 298.663H169.4V298.883H178.931V298.663Z" fill="#E6E6E6"/>
<path d="M101.692 296.023H68.6396V296.243H101.692V296.023Z" fill="#E6E6E6"/>
<path d="M363.132 293.771H343.79V293.991H363.132V293.771Z" fill="#E6E6E6"/>
<path d="M61.4593 296.023H45.4521V296.243H61.4593V296.023Z" fill="#E6E6E6"/>
<path d="M208.56 248.864H38.6408C37.3096 248.862 36.0338 248.331 35.0934 247.389C34.1529 246.447 33.6248 245.17 33.6248 243.839V4.9808C33.6363 3.6573 34.1696 2.39182 35.1088 1.45923C36.048 0.526643 37.3172 0.00226722 38.6408 0H208.56C209.893 0 211.171 0.529397 212.113 1.47173C213.055 2.41406 213.585 3.69214 213.585 5.0248V243.839C213.585 245.172 213.055 246.45 212.113 247.392C211.171 248.335 209.893 248.864 208.56 248.864ZM38.6408 0.176001C37.368 0.178332 36.1481 0.685578 35.2489 1.5864C34.3498 2.48722 33.8448 3.70801 33.8448 4.9808V243.839C33.8448 245.112 34.3498 246.333 35.2489 247.234C36.1481 248.135 37.368 248.642 38.6408 248.644H208.56C209.834 248.642 211.054 248.135 211.955 247.234C212.856 246.334 213.363 245.113 213.365 243.839V4.9808C213.363 3.7072 212.856 2.48643 211.955 1.58586C211.054 0.685292 209.834 0.178327 208.56 0.176001H38.6408Z" fill="#AFAFAF"/>
<path d="M398.913 248.864H228.985C227.653 248.862 226.377 248.332 225.435 247.39C224.493 246.448 223.963 245.171 223.96 243.839V4.9808C223.974 3.6565 224.51 2.39103 225.45 1.45868C226.391 0.526336 227.661 0.0022425 228.985 0H398.913C400.235 0.00457996 401.502 0.529979 402.44 1.46232C403.377 2.39466 403.909 3.65882 403.921 4.9808V243.839C403.921 245.169 403.394 246.444 402.455 247.386C401.516 248.328 400.243 248.859 398.913 248.864ZM228.985 0.176001C227.712 0.178327 226.491 0.685292 225.59 1.58586C224.69 2.48643 224.183 3.7072 224.18 4.9808V243.839C224.183 245.113 224.69 246.334 225.59 247.234C226.491 248.135 227.712 248.642 228.985 248.644H398.913C400.187 248.642 401.408 248.135 402.308 247.234C403.209 246.334 403.716 245.113 403.718 243.839V4.9808C403.716 3.7072 403.209 2.48643 402.308 1.58586C401.408 0.685292 400.187 0.178327 398.913 0.176001H228.985Z" fill="#AFAFAF"/>
<path d="M284.742 132.106H351.243V16.324L284.742 16.324V132.106Z" fill="#E6E6E6"/>
<path d="M281.151 132.106H347.653V16.324L281.151 16.324V132.106Z" fill="#C8C8C8"/>
<path d="M341.194 126.676V21.7623L287.593 21.7623V126.676H341.194Z" fill="#323232"/>
<path d="M290.312 126.676V21.7623H287.593V126.676H290.312Z" fill="#E6E6E6"/>
<path d="M283.818 101.35L344.986 101.35V94.0544H283.818V101.35Z" fill="#C8C8C8"/>
<path d="M171.723 132.106H238.225V16.324L171.723 16.324V132.106Z" fill="#E6E6E6"/>
<path d="M168.133 132.106H234.635V16.324L168.133 16.324V132.106Z" fill="#C8C8C8"/>
<path d="M228.184 126.676V21.7623L174.583 21.7623V126.676H228.184Z" fill="#323232"/>
<path d="M177.294 126.667V21.7537H174.574V126.667H177.294Z" fill="#E6E6E6"/>
<path d="M170.799 101.35L231.968 101.35V94.0544H170.799V101.35Z" fill="#C8C8C8"/>
<path d="M58.7137 132.106H125.215L125.215 16.324L58.7137 16.324L58.7137 132.106Z" fill="#E6E6E6"/>
<path d="M55.1231 132.106H121.625L121.625 16.324L55.1231 16.324L55.1231 132.106Z" fill="#C8C8C8"/>
<path d="M115.166 126.667V21.7537L61.5647 21.7537L61.5647 126.667H115.166Z" fill="#323232"/>
<path d="M64.2842 126.676V21.7623H61.565L61.565 126.676H64.2842Z" fill="#E6E6E6"/>
<path d="M57.7897 101.35L118.958 101.35V94.0544H57.7897V101.35Z" fill="#C8C8C8"/>
<path d="M123.2 203.738C111.206 205.392 103.787 179.326 130.24 157.256C128.858 182.802 144.126 200.851 123.2 203.738Z" fill="#E6E6E6"/>
<path d="M114.4 237.873C97.0112 225.685 108.909 183.102 162.721 186.19C139.454 217.536 144.725 259.116 114.4 237.873Z" fill="#E0E0E0"/>
<path d="M120.56 237.6C132.115 225.157 115.667 193.838 74.0874 205.278C97.5482 225.87 100.399 259.283 120.56 237.6Z" fill="#E0E0E0"/>
<path d="M105.723 219.437C101.728 214.57 97.0111 209.097 98.1551 203.306C99.2991 197.516 102.159 193.213 99.9151 187.053C97.1871 179.661 97.7151 170.843 102.326 171.582C106.938 172.322 112.103 177.742 112.006 184.879C111.927 191.814 116.406 194.031 120.718 197.718C125.03 201.406 126.553 206.8 127.318 212.08C128.656 220.466 139.524 218.882 142.41 226.16C145.394 233.2 139.445 242.572 129.932 244.728C120.419 246.884 113.643 248.248 107.158 240.803C100.566 232.963 111.637 226.406 105.723 219.437Z" fill="#C8C8C8"/>
<path d="M138.451 288.112H102.714L100.021 239.43H141.143L138.451 288.112Z" fill="#323232"/>
<path d="M143.809 238.436H97.3542V243.681H143.809V238.436Z" fill="#323232"/>
<path d="M349.131 281.503H373.173V177.25H349.131V281.503Z" fill="#323232"/>
<path d="M160.732 288.112H368.553V281.503H160.732V288.112Z" fill="#323232"/>
<path d="M349.132 177.25H156.121V281.503H349.132V177.25Z" fill="#C8C8C8"/>
<path d="M339.68 190.08H165.572V224.277H339.68V190.08Z" fill="#323232"/>
<path d="M339.68 234.476H165.572V268.673H339.68V234.476Z" fill="#323232"/>
<path d="M198.467 209.519H306.786C307.406 209.517 308 209.27 308.438 208.831C308.877 208.393 309.124 207.799 309.127 207.178C309.127 206.557 308.88 205.961 308.442 205.52C308.003 205.08 307.407 204.831 306.786 204.829H198.467C197.845 204.831 197.25 205.08 196.811 205.52C196.372 205.961 196.126 206.557 196.126 207.178C196.128 207.799 196.375 208.393 196.814 208.831C197.252 209.27 197.846 209.517 198.467 209.519Z" fill="#C8C8C8"/>
<path d="M198.467 253.915H306.786C307.406 253.913 308 253.666 308.438 253.227C308.877 252.789 309.124 252.195 309.127 251.574C309.124 250.954 308.877 250.36 308.438 249.922C308 249.483 307.406 249.236 306.786 249.234H198.467C197.846 249.236 197.252 249.483 196.814 249.922C196.375 250.36 196.128 250.954 196.126 251.574C196.128 252.195 196.375 252.789 196.814 253.227C197.252 253.666 197.846 253.913 198.467 253.915Z" fill="#C8C8C8"/>
<path d="M295.847 162.034C295.847 162.034 323.391 188.135 339.742 161.929C339.742 161.929 335.394 153.507 330.81 152.786C326.225 152.064 326.04 160.072 322.01 157.599C317.979 155.126 313.271 146.67 310.702 151.184C308.132 155.698 304.603 149.266 300.758 148.896C296.912 148.526 295.847 162.034 295.847 162.034Z" fill="#C8C8C8"/>
<path d="M341.493 160.23C341.493 160.23 340.895 177.25 317.68 177.25C294.466 177.25 293.867 160.23 293.867 160.23H341.493Z" fill="#323232"/>
<path d="M224.057 151.36H237.424V177.25H198.176C198.176 170.385 200.903 163.801 205.756 158.946C210.609 154.091 217.192 151.362 224.057 151.36Z" fill="#C8C8C8"/>
<path d="M249.753 151.36H237.424V177.25H249.753V151.36Z" fill="#E6E6E6"/>
<path d="M220 327.853C314.233 327.853 390.624 323.393 390.624 317.891C390.624 312.39 314.233 307.93 220 307.93C125.768 307.93 49.3772 312.39 49.3772 317.891C49.3772 323.393 125.768 327.853 220 327.853Z" fill="#C8C8C8"/>
<path d="M191.84 125.629L191.26 126.509C191.084 126.764 190.899 126.993 190.723 127.23C190.362 127.705 189.984 128.11 189.605 128.594C188.84 129.474 188.065 130.354 187.238 131.129C185.584 132.718 183.82 134.188 181.958 135.529C180.099 136.869 178.143 138.069 176.106 139.119C175.076 139.621 174.056 140.14 172.991 140.562L171.398 141.196L170.949 141.363C170.703 141.442 170.474 141.53 170.201 141.592C169.669 141.725 169.122 141.787 168.573 141.777C167.528 141.77 166.499 141.513 165.572 141.029C164.827 140.64 164.143 140.145 163.54 139.559C162.584 138.617 161.758 137.551 161.084 136.391C159.932 134.382 158.991 132.259 158.277 130.055C156.893 125.901 155.903 121.626 155.32 117.286L158.999 116.477C159.668 118.404 160.354 120.393 161.111 122.311C161.868 124.229 162.624 126.139 163.504 127.952C164.305 129.702 165.26 131.377 166.356 132.959C166.791 133.615 167.315 134.207 167.913 134.719C168.085 134.86 168.278 134.973 168.485 135.053C168.608 135.053 168.6 135.053 168.538 135.053H168.476L168.767 134.913L170.078 134.279C170.958 133.857 171.794 133.399 172.639 132.889C174.305 131.89 175.915 130.8 177.461 129.624C178.987 128.425 180.436 127.132 181.8 125.752C182.486 125.083 183.137 124.37 183.762 123.649C184.07 123.288 184.378 122.927 184.642 122.566L185.064 122.029L185.408 121.572L191.84 125.629Z" fill="#E0AB99"/>
<path d="M181.183 125.25L185.645 135.951L182.415 137.966L177.399 128.26L181.183 125.25Z" fill="#0D0D0D"/>
<path d="M193.811 116.239C186.534 116.142 179.142 125.356 178.957 125.585L184.712 139.119C184.712 139.119 197.516 128.726 198.159 124.661C198.827 120.428 198.423 116.301 193.811 116.239Z" fill="#34C759"/>
<path opacity="0.3" d="M193.811 116.239C186.534 116.142 179.142 125.356 178.957 125.585L184.712 139.119C184.712 139.119 197.516 128.726 198.159 124.661C198.827 120.428 198.423 116.301 193.811 116.239Z" fill="black"/>
<path d="M158.401 115.078L153.367 111.162L152.346 118.87C152.346 118.87 157.239 120.789 159.844 119.126L159.773 117.718C159.747 117.205 159.611 116.704 159.374 116.248C159.137 115.793 158.805 115.394 158.401 115.078Z" fill="#E0AB99"/>
<path d="M146.661 110.774L146.978 116.626L152.372 118.87L153.393 111.161L146.661 110.774Z" fill="#E0AB99"/>
<path d="M256.961 114.453L264.74 112.508L259.301 106.955C259.301 106.955 254.259 109.014 255.491 113.414L256.961 114.453Z" fill="#E0AB99"/>
<path d="M268.603 111.126L267.961 105.019L259.257 106.955L264.696 112.508L268.603 111.126Z" fill="#E0AB99"/>
<path d="M231.59 310.174L224.347 310.869L218.302 293.779L225.544 293.075L231.59 310.174Z" fill="#E0AB99"/>
<path d="M309.118 274.243L303.785 279.418L290.075 268.717L295.416 263.542L309.118 274.243Z" fill="#E0AB99"/>
<path d="M302.246 278.414L306.346 271.137C306.415 271.012 306.528 270.916 306.662 270.868C306.796 270.819 306.944 270.821 307.077 270.873L313.307 273.284C313.461 273.351 313.6 273.45 313.713 273.573C313.826 273.697 313.912 273.844 313.966 274.003C314.019 274.163 314.038 274.331 314.021 274.498C314.005 274.666 313.953 274.828 313.87 274.974C312.401 277.49 311.565 278.626 309.761 281.829C308.652 283.8 306.487 288.314 304.956 291.034C303.425 293.753 300.653 292.38 301.049 291.113C302.809 285.419 302.51 282.242 302.034 279.726C301.947 279.277 302.022 278.813 302.246 278.414Z" fill="#0D0D0D"/>
<path d="M222.904 308.651H231.704C231.862 308.655 232.015 308.709 232.14 308.805C232.266 308.902 232.356 309.036 232.4 309.188L234.318 316.166C234.367 316.331 234.376 316.505 234.344 316.674C234.313 316.843 234.242 317.003 234.137 317.139C234.032 317.275 233.897 317.385 233.742 317.459C233.587 317.533 233.416 317.57 233.244 317.566C230.156 317.513 228.651 317.328 224.77 317.328C222.385 317.328 214.615 317.583 211.315 317.583C208.015 317.583 207.416 314.318 208.754 314.063C214.738 312.734 219.789 310.913 221.628 309.17C221.969 308.836 222.427 308.65 222.904 308.651Z" fill="#0D0D0D"/>
<path d="M218.311 293.779L221.417 302.597H228.915L225.553 293.075L218.311 293.779Z" fill="#B96F5A"/>
<path d="M295.425 263.542L290.083 268.726L297.15 274.234L302.491 269.06L295.425 263.542Z" fill="#B96F5A"/>
<path d="M186.727 118.589C186.727 118.589 183.735 120.868 203.896 160.213L232.637 150.929C228.378 139.392 226.037 132.185 223.837 106.374C219.574 106.846 215.351 107.625 211.2 108.706C206.762 109.823 202.403 111.231 198.15 112.922C192.658 115.28 186.727 118.589 186.727 118.589Z" fill="#34C759"/>
<path opacity="0.3" d="M186.727 118.589C186.727 118.589 183.735 120.868 203.896 160.213L232.637 150.929C228.378 139.392 226.037 132.185 223.837 106.374C219.574 106.846 215.351 107.625 211.2 108.706C206.762 109.823 202.403 111.231 198.15 112.922C192.658 115.28 186.727 118.589 186.727 118.589Z" fill="black"/>
<path d="M205.119 94.424C205.647 98.8944 207.311 106.85 211.156 108.706C211.156 108.706 211.376 113.335 203.579 115.852C194.999 118.624 198.106 112.922 198.106 112.922C202.427 110.282 201.177 106.85 199.311 103.858L205.119 94.424Z" fill="#E0AB99"/>
<path d="M190.696 116.459C192.817 115.359 195.519 114.021 198.106 112.939C202.364 111.218 206.74 109.803 211.2 108.706C213.708 108.02 216.243 107.509 218.381 107.149C218.583 107.747 217.976 109.296 216.489 111.434C211.781 115.341 201.74 120.419 194.339 120.234C191.101 119.029 190.291 117.753 190.696 116.459Z" fill="#E0AB99"/>
<path d="M216.48 111.434C213.283 115.719 209.463 119.501 205.146 122.654C201.47 122.207 197.847 121.396 194.331 120.234C201.696 120.419 211.737 115.342 216.48 111.434Z" fill="#0D0D0D"/>
<path d="M202.753 98.2695L199.312 103.84C199.761 104.534 200.147 105.268 200.465 106.031C202.172 105.195 204.345 102.722 203.932 100.751C203.686 99.8616 203.287 99.0217 202.753 98.2695Z" fill="#B96F5A"/>
<path d="M206.862 86.1696C207.302 93.5352 207.654 96.6416 204.415 100.848C199.549 107.166 190.406 106.128 187.766 99.0176C185.399 92.6376 185.073 81.664 191.875 77.8976C193.37 77.0577 195.054 76.6134 196.769 76.6069C198.483 76.6004 200.171 77.0318 201.672 77.8603C203.173 78.6888 204.438 79.8869 205.346 81.3411C206.254 82.7953 206.776 84.4573 206.862 86.1696Z" fill="#E0AB99"/>
<path d="M221.41 72.969C223.074 65.6518 218.491 58.3712 211.173 56.7075C203.856 55.0437 196.575 59.6267 194.912 66.944C193.248 74.2612 197.831 81.5418 205.148 83.2055C212.465 84.8693 219.746 80.2863 221.41 72.969Z" fill="#0D0D0D"/>
<path d="M204.768 75.8559C207.566 77.7039 208.956 80.5375 207.874 82.1831C206.792 83.8287 203.641 83.6703 200.834 81.8223C198.027 79.9743 196.645 77.1407 197.728 75.4951C198.81 73.8495 201.96 74.0079 204.768 75.8559Z" fill="#34C759"/>
<path opacity="0.6" d="M204.768 75.8559C207.566 77.7039 208.956 80.5375 207.874 82.1831C206.792 83.8287 203.641 83.6703 200.834 81.8223C198.027 79.9743 196.645 77.1407 197.728 75.4951C198.81 73.8495 201.96 74.0079 204.768 75.8559Z" fill="#323232"/>
<path d="M203.28 91.1944C204.011 89.5048 201.468 84.4888 202.013 82.6144C200.552 81.2504 185.742 86.0728 186.939 82.5528C188.083 79.1736 191.691 74.6944 199.928 76.5688C208.728 78.5752 209.493 86.1872 208.508 88.616C207.522 91.0448 206.123 93.5704 206.123 93.5704L203.28 91.1944Z" fill="#0D0D0D"/>
<path d="M208.798 92.6288C208.816 94.0542 208.273 95.4295 207.284 96.4568C205.956 97.8032 204.354 96.8352 203.94 95.0928C203.562 93.5264 203.808 90.9304 205.516 90.244C205.892 90.0974 206.299 90.0477 206.7 90.0995C207.1 90.1512 207.481 90.3027 207.808 90.5401C208.135 90.7775 208.397 91.0931 208.57 91.4581C208.743 91.823 208.821 92.2256 208.798 92.6288Z" fill="#E0AB99"/>
<path d="M203.896 160.213C203.896 160.213 190.573 225.192 198 246.62C205.727 268.91 218.302 300.027 218.302 300.027L230.05 299.358C230.05 299.358 220.37 260.04 217.985 242.282C214.72 217.8 228.703 152.24 228.703 152.24L203.896 160.213Z" fill="#34C759"/>
<path opacity="0.6" d="M203.896 160.213C203.896 160.213 190.573 225.192 198 246.62C205.727 268.91 218.302 300.027 218.302 300.027L230.05 299.358C230.05 299.358 220.37 260.04 217.985 242.282C214.72 217.8 228.703 152.24 228.703 152.24L203.896 160.213Z" fill="#323232"/>
<path d="M230.974 299.64L217.378 300.423L215.196 295.073L230.191 293.515L230.974 299.64Z" fill="#34C759"/>
<path opacity="0.2" d="M230.974 299.64L217.378 300.423L215.196 295.073L230.191 293.515L230.974 299.64Z" fill="black"/>
<path d="M217.985 165.211C215.944 172.762 217.651 184.078 221.505 192.016C222.447 185.856 223.45 179.89 224.401 174.548C222.421 170.72 220.238 167.323 217.985 165.211Z" fill="#34C759"/>
<path opacity="0.4" d="M217.985 165.211C215.944 172.762 217.651 184.078 221.505 192.016C222.447 185.856 223.45 179.89 224.401 174.548C222.421 170.72 220.238 167.323 217.985 165.211Z" fill="#323232"/>
<path d="M211.482 157.758C211.482 157.758 231.264 205.04 244.367 231C254.927 251.997 294.114 273.97 294.114 273.97L301.154 266.508C301.154 266.508 271.867 240.504 264.563 226.266C241.191 180.69 245.995 160.785 232.654 150.929L211.482 157.758Z" fill="#34C759"/>
<path opacity="0.6" d="M211.482 157.758C211.482 157.758 231.264 205.04 244.367 231C254.927 251.997 294.114 273.97 294.114 273.97L301.154 266.508C301.154 266.508 271.867 240.504 264.563 226.266C241.191 180.69 245.995 160.785 232.654 150.929L211.482 157.758Z" fill="#323232"/>
<path d="M302.465 265.443L292.785 275.73L286.66 272.51L297.81 261.14L302.465 265.443Z" fill="#34C759"/>
<path opacity="0.2" d="M302.465 265.443L292.785 275.73L286.66 272.51L297.81 261.14L302.465 265.443Z" fill="black"/>
<path d="M232.522 149.107L234.643 151.263C234.81 151.43 234.643 151.712 234.309 151.818L204.169 161.498C203.905 161.586 203.65 161.498 203.579 161.366L202.497 158.884C202.418 158.708 202.594 158.488 202.875 158.391L231.977 149.002C232.069 148.971 232.168 148.964 232.264 148.982C232.359 149.001 232.448 149.044 232.522 149.107Z" fill="#0D0D0D"/>
<path d="M229.68 153.622L230.455 153.375C230.613 153.322 230.701 153.199 230.666 153.111L229.223 149.882C229.223 149.794 229.012 149.758 228.862 149.802L228.079 150.058C227.929 150.058 227.832 150.225 227.876 150.322L229.32 153.542C229.346 153.639 229.504 153.674 229.68 153.622Z" fill="#34C759"/>
<path opacity="0.6" d="M229.68 153.622L230.455 153.375C230.613 153.322 230.701 153.199 230.666 153.111L229.223 149.882C229.223 149.794 229.012 149.758 228.862 149.802L228.079 150.058C227.929 150.058 227.832 150.225 227.876 150.322L229.32 153.542C229.346 153.639 229.504 153.674 229.68 153.622Z" fill="#323232"/>
<path d="M206.448 161.119L207.232 160.864C207.381 160.811 207.478 160.697 207.434 160.6L205.991 157.379C205.947 157.282 205.788 157.247 205.63 157.3L204.847 157.546C204.697 157.599 204.6 157.714 204.644 157.81L206.088 161.031C206.132 161.128 206.29 161.163 206.448 161.119Z" fill="#34C759"/>
<path opacity="0.6" d="M206.448 161.119L207.232 160.864C207.381 160.811 207.478 160.697 207.434 160.6L205.991 157.379C205.947 157.282 205.788 157.247 205.63 157.3L204.847 157.546C204.697 157.599 204.6 157.714 204.644 157.81L206.088 161.031C206.132 161.128 206.29 161.163 206.448 161.119Z" fill="#323232"/>
<path d="M218.056 157.37L218.83 157.115C218.988 157.115 219.085 156.948 219.041 156.851L217.598 153.63C217.554 153.534 217.387 153.498 217.237 153.551L216.454 153.806C216.304 153.85 216.208 153.974 216.252 154.062L217.695 157.291C217.738 157.342 217.797 157.377 217.862 157.391C217.927 157.405 217.995 157.398 218.056 157.37Z" fill="#34C759"/>
<path opacity="0.6" d="M218.056 157.37L218.83 157.115C218.988 157.115 219.085 156.948 219.041 156.851L217.598 153.63C217.554 153.534 217.387 153.498 217.237 153.551L216.454 153.806C216.304 153.85 216.208 153.974 216.252 154.062L217.695 157.291C217.738 157.342 217.797 157.377 217.862 157.391C217.927 157.405 217.995 157.398 218.056 157.37Z" fill="#323232"/>
<path d="M196.02 89.5663C196.091 90.1559 195.835 90.6839 195.448 90.7279C195.061 90.7719 194.683 90.3319 194.612 89.7335C194.542 89.1351 194.797 88.6159 195.184 88.5719C195.571 88.5279 195.95 88.9679 196.02 89.5663Z" fill="#0D0D0D"/>
<path d="M189.288 90.3847C189.368 90.9831 189.104 91.5023 188.716 91.5463C188.329 91.5903 187.951 91.1503 187.88 90.5607C187.81 89.9711 188.065 89.4431 188.452 89.3903C188.84 89.3375 189.2 89.7599 189.288 90.3847Z" fill="#0D0D0D"/>
<path d="M188.628 89.4079L187.15 89.1703C187.15 89.1703 188.021 90.1999 188.628 89.4079Z" fill="#0D0D0D"/>
<path d="M191.198 91.1943C190.83 92.6158 190.27 93.9806 189.534 95.2511C189.866 95.4279 190.231 95.5319 190.606 95.5561C190.981 95.5804 191.357 95.5244 191.708 95.3919L191.198 91.1943Z" fill="#B96F5A"/>
<path d="M194.067 97.4776C194.025 97.4781 193.983 97.4632 193.951 97.4357C193.919 97.4082 193.897 97.37 193.891 97.328C193.888 97.2808 193.903 97.2341 193.932 97.1968C193.961 97.1595 194.003 97.1341 194.049 97.1256C194.791 97.0518 195.504 96.8046 196.133 96.4041C196.761 96.0036 197.286 95.461 197.666 94.82C197.676 94.7984 197.689 94.7788 197.707 94.7626C197.724 94.7464 197.744 94.7338 197.766 94.7256C197.788 94.7173 197.812 94.7137 197.836 94.7148C197.859 94.7159 197.882 94.7218 197.904 94.732C197.925 94.7423 197.943 94.7566 197.959 94.7742C197.974 94.7918 197.986 94.8122 197.993 94.8343C198 94.8564 198.003 94.8797 198.002 94.903C198 94.9262 197.994 94.9489 197.983 94.9696C197.583 95.6688 197.021 96.2616 196.344 96.6981C195.667 97.1346 194.895 97.4019 194.093 97.4776H194.067Z" fill="#0D0D0D"/>
<path d="M196.856 87.4544C196.772 87.4534 196.691 87.4222 196.628 87.3664C196.302 87.0654 195.91 86.8468 195.482 86.7289C195.055 86.611 194.606 86.5972 194.172 86.6888C194.127 86.7021 194.08 86.7063 194.033 86.7011C193.987 86.6959 193.941 86.6814 193.9 86.6584C193.859 86.6354 193.823 86.6045 193.794 86.5674C193.766 86.5303 193.744 86.4878 193.732 86.4424C193.719 86.3979 193.715 86.3511 193.72 86.305C193.726 86.2589 193.74 86.2143 193.763 86.174C193.786 86.1337 193.817 86.0985 193.854 86.0705C193.891 86.0425 193.934 86.0223 193.979 86.0112C194.524 85.8913 195.091 85.903 195.631 86.0453C196.171 86.1877 196.669 86.4565 197.085 86.8296C197.118 86.8623 197.145 86.9014 197.163 86.9444C197.181 86.9875 197.19 87.0337 197.19 87.0804C197.19 87.127 197.181 87.1733 197.163 87.2163C197.145 87.2594 197.118 87.2984 197.085 87.3312C197.027 87.3992 196.945 87.4432 196.856 87.4544Z" fill="#0D0D0D"/>
<path d="M185.812 87.6568C185.76 87.6691 185.706 87.6691 185.654 87.6568C185.573 87.612 185.512 87.5376 185.484 87.4491C185.456 87.3606 185.463 87.2648 185.504 87.1816C185.745 86.6784 186.102 86.2396 186.546 85.9015C186.99 85.5633 187.507 85.3355 188.056 85.2368C188.148 85.2268 188.241 85.2536 188.313 85.3113C188.386 85.3689 188.432 85.4528 188.444 85.5448C188.45 85.5911 188.447 85.6381 188.434 85.6832C188.422 85.7282 188.401 85.7704 188.372 85.8073C188.344 85.8441 188.308 85.8749 188.267 85.8978C188.227 85.9207 188.182 85.9353 188.136 85.9408C187.701 86.0217 187.292 86.2053 186.943 86.4762C186.594 86.7472 186.315 87.0976 186.129 87.4984C186.095 87.5504 186.048 87.5925 185.992 87.6203C185.936 87.6481 185.874 87.6607 185.812 87.6568Z" fill="#0D0D0D"/>
<path d="M229.68 113.247L230.015 113.67L230.428 114.171C230.71 114.506 231 114.849 231.308 115.183C231.916 115.861 232.549 116.53 233.227 117.163C234.554 118.464 235.955 119.686 237.424 120.824C238.916 121.954 240.464 123.008 242.062 123.983C242.863 124.467 243.681 124.925 244.508 125.374L245.767 126.016L246.374 126.324C246.524 126.394 246.673 126.465 246.814 126.518C247.263 126.705 247.744 126.803 248.231 126.808C248.678 126.782 249.107 126.623 249.463 126.35C250.642 125.373 251.574 124.131 252.182 122.725C252.999 121.03 253.656 119.262 254.144 117.445C254.688 115.591 255.138 113.712 255.491 111.813L259.248 112.05C259.366 116.382 258.747 120.703 257.418 124.828C257.041 125.952 256.555 127.037 255.966 128.066C255.312 129.239 254.468 130.295 253.467 131.19C252.275 132.249 250.818 132.963 249.252 133.258C247.729 133.524 246.165 133.415 244.693 132.942C244.35 132.845 244.033 132.722 243.708 132.598L242.942 132.282L241.446 131.657C240.452 131.208 239.475 130.777 238.516 130.231C236.59 129.215 234.735 128.072 232.963 126.808C231.188 125.528 229.498 124.135 227.903 122.637C227.111 121.88 226.345 121.079 225.597 120.252C225.228 119.83 224.858 119.372 224.506 118.967L223.969 118.272C223.784 118.026 223.644 117.832 223.397 117.48L229.68 113.247Z" fill="#E0AB99"/>
<path d="M235.92 117.885L230.411 127.134L227.727 124.599L232.813 115.333L235.92 117.885Z" fill="#0D0D0D"/>
<path d="M223.872 106.374C227.04 106.322 234.732 115.403 234.732 115.403L228.044 127.046C228.044 127.046 219.525 119.539 219.534 115.43C219.543 111.144 220.264 106.48 223.872 106.374Z" fill="#34C759"/>
<path opacity="0.3" d="M223.872 106.374C227.04 106.322 234.732 115.403 234.732 115.403L228.044 127.046C228.044 127.046 219.525 119.539 219.534 115.43C219.543 111.144 220.264 106.48 223.872 106.374Z" fill="black"/>
<path d="M300.802 282.366C300.557 282.356 300.322 282.267 300.133 282.11C300.045 282.052 299.974 281.97 299.929 281.873C299.884 281.777 299.866 281.67 299.878 281.565C299.957 280.614 302.342 279.365 302.606 279.224C302.635 279.205 302.668 279.195 302.703 279.195C302.737 279.195 302.771 279.205 302.799 279.224C302.826 279.246 302.846 279.275 302.857 279.308C302.867 279.34 302.869 279.375 302.861 279.409C302.588 280.359 301.981 281.996 301.101 282.286C301.007 282.33 300.906 282.357 300.802 282.366ZM302.395 279.726C301.462 280.254 300.274 281.081 300.23 281.574C300.223 281.621 300.231 281.67 300.253 281.712C300.275 281.755 300.31 281.79 300.353 281.811C300.435 281.891 300.538 281.947 300.649 281.974C300.761 282 300.877 281.996 300.987 281.961C301.471 281.82 301.981 280.993 302.395 279.743V279.726Z" fill="#34C759"/>
<path d="M300.476 280.06C300.09 280.093 299.703 279.997 299.376 279.787C299.27 279.696 299.199 279.571 299.173 279.434C299.148 279.296 299.17 279.154 299.236 279.03C299.283 278.903 299.359 278.788 299.458 278.695C299.558 278.602 299.677 278.533 299.808 278.494C300.828 278.15 302.694 279.18 302.773 279.224C302.802 279.24 302.826 279.262 302.843 279.29C302.86 279.318 302.869 279.35 302.87 279.382C302.869 279.413 302.86 279.442 302.845 279.468C302.829 279.494 302.808 279.516 302.782 279.532C302.063 279.88 301.275 280.061 300.476 280.06ZM300.292 278.775C300.166 278.774 300.042 278.791 299.922 278.828C299.841 278.853 299.766 278.897 299.704 278.954C299.641 279.012 299.593 279.083 299.561 279.162C299.473 279.374 299.561 279.462 299.561 279.523C299.957 279.858 301.418 279.717 302.254 279.374C301.644 279.05 300.978 278.847 300.292 278.775Z" fill="#34C759"/>
<path d="M218.997 310.112C218.382 310.164 217.765 310.019 217.237 309.698C217.099 309.597 216.986 309.464 216.908 309.312C216.83 309.159 216.789 308.99 216.788 308.818C216.778 308.725 216.793 308.631 216.832 308.546C216.87 308.461 216.931 308.388 217.008 308.334C217.809 307.789 220.819 309.162 221.408 309.434C221.442 309.451 221.47 309.478 221.487 309.511C221.504 309.544 221.511 309.582 221.505 309.619C221.502 309.655 221.488 309.689 221.464 309.716C221.44 309.743 221.408 309.761 221.373 309.769C220.595 309.963 219.799 310.078 218.997 310.112ZM217.589 308.59C217.47 308.579 217.351 308.603 217.246 308.66C217.219 308.678 217.199 308.704 217.186 308.733C217.174 308.763 217.17 308.796 217.176 308.827C217.179 308.943 217.208 309.056 217.261 309.158C217.315 309.26 217.391 309.349 217.484 309.417C218.179 309.945 219.833 309.742 220.801 309.566C219.786 309.081 218.703 308.752 217.589 308.59Z" fill="#34C759"/>
<path d="M221.373 309.804H221.303C220.308 309.399 218.302 307.789 218.416 306.953C218.416 306.768 218.557 306.539 219.015 306.486C220.775 306.258 221.514 309.47 221.54 309.602C221.548 309.633 221.547 309.666 221.537 309.697C221.528 309.727 221.511 309.755 221.488 309.778C221.453 309.798 221.413 309.807 221.373 309.804ZM219.173 306.821H219.059C218.874 306.821 218.768 306.9 218.76 306.988C218.698 307.463 220.08 308.748 221.1 309.294C220.88 308.537 220.229 306.821 219.173 306.821Z" fill="#34C759"/>
<path d="M195.36 88.5807L193.882 88.3431C193.882 88.3431 194.753 89.3727 195.36 88.5807Z" fill="#0D0D0D"/>
<path d="M140.308 27.0863C138.75 29.0399 130.17 31.3367 123.35 30.7031C121 46.1207 129.211 63.8703 129.211 63.8703C129.211 63.8703 147.031 61.7495 147.471 54.4103C147.911 47.0711 140.308 27.0863 140.308 27.0863Z" fill="#34C759"/>
<path opacity="0.4" d="M140.308 27.0863C138.75 29.0399 130.17 31.3367 123.35 30.7031C121 46.1207 129.211 63.8703 129.211 63.8703C129.211 63.8703 147.031 61.7495 147.471 54.4103C147.911 47.0711 140.308 27.0863 140.308 27.0863Z" fill="#323232"/>
<path d="M275.202 15.356C276.795 17.6 284.882 19.8264 291.139 18.6648C294.492 36.916 288.279 58.5992 288.279 58.5992C288.279 58.5992 271.674 57.1208 270.679 48.4C269.685 39.6792 275.202 15.356 275.202 15.356Z" fill="#34C759"/>
<path opacity="0.4" d="M275.202 15.356C276.795 17.6 284.882 19.8264 291.139 18.6648C294.492 36.916 288.279 58.5992 288.279 58.5992C288.279 58.5992 271.674 57.1208 270.679 48.4C269.685 39.6792 275.202 15.356 275.202 15.356Z" fill="#323232"/>
<path d="M158.4 173.422C158.274 173.44 158.145 173.434 158.021 173.402C157.897 173.37 157.78 173.315 157.678 173.238C157.576 173.161 157.489 173.064 157.425 172.954C157.36 172.843 157.318 172.721 157.3 172.594L136.4 24.3408C136.383 24.2099 136.393 24.0769 136.428 23.9496C136.463 23.8224 136.524 23.7035 136.606 23.6001C136.688 23.4967 136.79 23.4108 136.906 23.3476C137.022 23.2843 137.149 23.245 137.28 23.232C137.408 23.2146 137.537 23.2225 137.661 23.2551C137.785 23.2877 137.901 23.3445 138.004 23.4221C138.106 23.4998 138.192 23.5968 138.256 23.7076C138.321 23.8184 138.363 23.9409 138.38 24.068L159.28 172.313C159.298 172.444 159.288 172.577 159.253 172.704C159.218 172.831 159.157 172.95 159.075 173.054C158.993 173.157 158.891 173.243 158.775 173.306C158.659 173.369 158.532 173.409 158.4 173.422Z" fill="#34C759"/>
<path opacity="0.2" d="M158.4 173.422C158.274 173.44 158.145 173.434 158.021 173.402C157.897 173.37 157.78 173.315 157.678 173.238C157.576 173.161 157.489 173.064 157.425 172.954C157.36 172.843 157.318 172.721 157.3 172.594L136.4 24.3408C136.383 24.2099 136.393 24.0769 136.428 23.9496C136.463 23.8224 136.524 23.7035 136.606 23.6001C136.688 23.4967 136.79 23.4108 136.906 23.3476C137.022 23.2843 137.149 23.245 137.28 23.232C137.408 23.2146 137.537 23.2225 137.661 23.2551C137.785 23.2877 137.901 23.3445 138.004 23.4221C138.106 23.4998 138.192 23.5968 138.256 23.7076C138.321 23.8184 138.363 23.9409 138.38 24.068L159.28 172.313C159.298 172.444 159.288 172.577 159.253 172.704C159.218 172.831 159.157 172.95 159.075 173.054C158.993 173.157 158.891 173.243 158.775 173.306C158.659 173.369 158.532 173.409 158.4 173.422Z" fill="black"/>
<path d="M257.99 162.404C258.121 162.421 258.254 162.412 258.381 162.377C258.509 162.341 258.628 162.281 258.731 162.199C258.834 162.117 258.92 162.015 258.983 161.899C259.047 161.783 259.086 161.655 259.099 161.524L280.043 13.2791C280.062 13.152 280.055 13.0224 280.024 12.8978C279.992 12.7732 279.936 12.6561 279.86 12.5531C279.783 12.4501 279.686 12.3632 279.576 12.2976C279.465 12.2319 279.343 12.1887 279.216 12.1703C279.085 12.1532 278.952 12.1625 278.825 12.1978C278.697 12.233 278.579 12.2935 278.475 12.3756C278.372 12.4577 278.286 12.5597 278.223 12.6756C278.159 12.7915 278.12 12.9189 278.107 13.0503L257.163 161.295C257.128 161.552 257.195 161.812 257.349 162.019C257.504 162.227 257.734 162.365 257.99 162.404Z" fill="#34C759"/>
<path opacity="0.2" d="M257.99 162.404C258.121 162.421 258.254 162.412 258.381 162.377C258.509 162.341 258.628 162.281 258.731 162.199C258.834 162.117 258.92 162.015 258.983 161.899C259.047 161.783 259.086 161.655 259.099 161.524L280.043 13.2791C280.062 13.152 280.055 13.0224 280.024 12.8978C279.992 12.7732 279.936 12.6561 279.86 12.5531C279.783 12.4501 279.686 12.3632 279.576 12.2976C279.465 12.2319 279.343 12.1887 279.216 12.1703C279.085 12.1532 278.952 12.1625 278.825 12.1978C278.697 12.233 278.579 12.2935 278.475 12.3756C278.372 12.4577 278.286 12.5597 278.223 12.6756C278.159 12.7915 278.12 12.9189 278.107 13.0503L257.163 161.295C257.128 161.552 257.195 161.812 257.349 162.019C257.504 162.227 257.734 162.365 257.99 162.404Z" fill="black"/>
<path d="M135.564 27.4735L139.524 56.5839C139.548 56.7679 139.612 56.9444 139.711 57.1014C139.81 57.2584 139.942 57.392 140.097 57.4932C140.253 57.5944 140.429 57.6607 140.612 57.6875C140.796 57.7144 140.983 57.7011 141.161 57.6487C150.014 55.1143 199.241 42.4775 274.859 50.5207C275.181 50.5577 275.504 50.4723 275.765 50.2815C276.026 50.0906 276.205 49.8084 276.267 49.4911C277.693 42.1167 280.148 21.1111 280.773 15.7343C280.81 15.3953 280.713 15.0552 280.503 14.787C280.292 14.5188 279.985 14.3439 279.647 14.2999C269.491 13.0151 200.174 5.33271 136.453 26.0655C136.165 26.161 135.918 26.3535 135.756 26.6103C135.594 26.8671 135.526 27.1722 135.564 27.4735Z" fill="#34C759"/>
<path opacity="0.6" d="M135.564 27.4735L139.524 56.5839C139.548 56.7679 139.612 56.9444 139.711 57.1014C139.81 57.2584 139.942 57.392 140.097 57.4932C140.253 57.5944 140.429 57.6607 140.612 57.6875C140.796 57.7144 140.983 57.7011 141.161 57.6487C150.014 55.1143 199.241 42.4775 274.859 50.5207C275.181 50.5577 275.504 50.4723 275.765 50.2815C276.026 50.0906 276.205 49.8084 276.267 49.4911C277.693 42.1167 280.148 21.1111 280.773 15.7343C280.81 15.3953 280.713 15.0552 280.503 14.787C280.292 14.5188 279.985 14.3439 279.647 14.2999C269.491 13.0151 200.174 5.33271 136.453 26.0655C136.165 26.161 135.918 26.3535 135.756 26.6103C135.594 26.8671 135.526 27.1722 135.564 27.4735Z" fill="#323232"/>
<path d="M148.263 32.5599L152.434 31.6799L155.382 39.3448L156.13 30.9319L160.292 30.0519L163.944 37.5672L163.997 29.304L168.151 28.424L167.605 43.2959L163.302 44.176L159.175 35.7104L158.295 45.1791L153.992 46.0592L148.263 32.5599Z" fill="white"/>
<path d="M170.193 28.2656L182.064 26.5056L182.451 29.568L175.024 30.6592L175.314 32.9472L182.205 31.9352L182.574 34.8656L175.684 35.8776L176.001 38.72L183.648 37.6024L184.061 40.8584L171.97 42.6184L170.193 28.2656Z" fill="white"/>
<path d="M185.082 26.1623L189.535 25.6783L190.485 36.564L197.428 35.8159L197.745 39.3359L186.305 40.5679L185.082 26.1623Z" fill="white"/>
<path d="M208.613 32.6127L212.582 33.4927C212.418 34.5093 212.043 35.4804 211.482 36.3439C210.967 37.1213 210.265 37.7568 209.44 38.1919C208.452 38.6681 207.377 38.9376 206.281 38.9839C204.973 39.1234 203.65 38.9824 202.4 38.5703C201.319 38.1027 200.4 37.3249 199.76 36.3351C198.918 35.0406 198.463 33.5323 198.449 31.9879C198.218 29.9618 198.801 27.9268 200.068 26.3295C200.748 25.6085 201.565 25.0319 202.473 24.6343C203.38 24.2366 204.358 24.026 205.348 24.0151C206.842 23.8199 208.359 24.0968 209.687 24.8071C210.853 25.5825 211.732 26.7207 212.186 28.0455L208.288 29.2071C208.18 28.8682 208.017 28.5499 207.804 28.2655C207.534 27.9459 207.189 27.698 206.8 27.5439C206.168 27.2855 205.463 27.2644 204.817 27.4843C204.17 27.7042 203.624 28.1504 203.28 28.7407C202.853 29.645 202.691 30.6521 202.814 31.6447C202.89 33.2463 203.184 34.3287 203.694 34.8919C203.96 35.1726 204.288 35.3867 204.652 35.5166C205.016 35.6466 205.405 35.6889 205.788 35.6399C206.149 35.6355 206.505 35.5548 206.833 35.4031C207.16 35.2515 207.452 35.0323 207.689 34.7599C208.176 34.135 208.494 33.3957 208.613 32.6127Z" fill="white"/>
<path d="M214.21 30.9319C214.141 29.9197 214.273 28.9039 214.6 27.9432C214.926 26.9825 215.44 26.096 216.111 25.3351C216.83 24.6268 217.685 24.0703 218.623 23.6984C219.562 23.3265 220.566 23.147 221.575 23.1703C222.577 23.0705 223.589 23.175 224.55 23.4775C225.51 23.7801 226.399 24.2743 227.163 24.9303C227.849 25.6429 228.382 26.4883 228.728 27.4146C229.075 28.3408 229.228 29.3282 229.179 30.3159C229.255 31.7612 228.983 33.2037 228.387 34.5223C227.848 35.6206 227.001 36.538 225.949 37.1623C224.725 37.8456 223.347 38.2032 221.945 38.2007C220.561 38.298 219.173 38.0752 217.888 37.5495C216.783 37.0416 215.862 36.2059 215.248 35.1559C214.527 33.8677 214.168 32.4079 214.21 30.9319ZM218.671 30.8087C218.594 31.9233 218.905 33.0304 219.551 33.9415C219.826 34.252 220.17 34.4934 220.555 34.6463C220.94 34.7992 221.356 34.8592 221.769 34.8215C222.191 34.831 222.61 34.7449 222.994 34.5697C223.378 34.3944 223.717 34.1345 223.987 33.8095C224.601 32.7862 224.863 31.5903 224.735 30.4039C224.81 29.3415 224.497 28.2878 223.855 27.4383C223.573 27.129 223.225 26.8887 222.835 26.7361C222.446 26.5835 222.027 26.5226 221.611 26.5583C221.197 26.5571 220.788 26.6489 220.415 26.8272C220.042 27.0054 219.714 27.2654 219.455 27.5879C218.836 28.5382 218.559 29.6713 218.671 30.7999V30.8087Z" fill="white"/>
<path d="M231.889 23.1351H237.759L239.783 31.9967L242.273 23.1967L248.143 23.2495L247.747 37.7695H244.086L244.385 26.6903L241.27 37.7431H237.961L235.453 26.6375L235.154 37.7167H231.493L231.889 23.1351Z" fill="white"/>
<path d="M251.364 23.3903L263.305 23.9271L263.12 27.0247L255.64 26.6903L255.491 29.0399L262.425 29.3479L262.24 32.2607L255.306 31.9527L255.13 34.8215L262.821 35.1559L262.61 38.4471L250.448 37.9015L251.364 23.3903Z" fill="white"/>
</svg>
