<svg width="36" height="36" viewBox="0 0 36 36" fill="none" xmlns="http://www.w3.org/2000/svg">
<path d="M3.02344 9.42188C3.43575 9.55931 3.8302 9.69881 4.22699 9.87039C4.30686 9.90454 4.30686 9.90454 4.38835 9.93938C4.50321 9.98851 4.61802 10.0377 4.7328 10.0871C5.04708 10.2221 5.36174 10.3563 5.67636 10.4906C5.77447 10.5325 5.77447 10.5325 5.87456 10.5752C6.56777 10.871 7.26302 11.1618 7.9585 11.4521C9.0635 11.9137 10.1673 12.3781 11.2702 12.8446C12.0212 13.1623 12.7727 13.4788 13.5253 13.7928C13.5959 13.8223 13.6665 13.8517 13.7392 13.8821C14.0792 14.024 14.4193 14.1657 14.7594 14.3071C14.8805 14.3576 15.0016 14.4081 15.1227 14.4586C15.2063 14.4932 15.2063 14.4932 15.2915 14.5285C15.6717 14.6873 15.6717 14.6873 15.75 14.7656C15.7569 14.9568 15.7591 15.1461 15.7585 15.3373C15.7585 15.4283 15.7585 15.4283 15.7586 15.5211C15.7588 15.7259 15.7584 15.9307 15.758 16.1355C15.758 16.2817 15.758 16.4279 15.758 16.574C15.758 16.9722 15.7576 17.3704 15.7571 17.7686C15.7567 18.1842 15.7566 18.5998 15.7566 19.0154C15.7563 19.8031 15.7558 20.5907 15.7551 21.3784C15.7543 22.2748 15.7539 23.1713 15.7535 24.0677C15.7528 25.9123 15.7516 27.7569 15.75 29.6016C15.5326 29.5597 15.3353 29.5144 15.1312 29.4283C15.0808 29.4072 15.0304 29.3861 14.9784 29.3644C14.897 29.3298 14.897 29.3298 14.814 29.2945C14.756 29.2701 14.698 29.2458 14.6382 29.2207C14.4462 29.14 14.2543 29.0587 14.0625 28.9775C13.9273 28.9206 13.7921 28.8637 13.6569 28.8068C13.3011 28.657 12.9454 28.5068 12.5898 28.3564C12.2425 28.2096 11.8951 28.0631 11.5477 27.9165C11.0777 27.7182 10.6077 27.5197 10.1377 27.3211C8.91398 26.8039 7.6887 26.2906 6.46307 25.778C6.19098 25.6642 5.91891 25.5504 5.64684 25.4365C5.45069 25.3545 5.25452 25.2725 5.05835 25.1905C4.93513 25.139 4.81191 25.0875 4.68869 25.0359C4.63456 25.0133 4.58044 24.9907 4.52467 24.9674C4.02287 24.7574 3.5235 24.5424 3.02344 24.3281C3.02344 19.4091 3.02344 14.49 3.02344 9.42188Z" fill="white"/>
<path d="M30.0234 9.42188C30.0234 11.8118 30.0234 14.2017 30.0234 16.6641C29.1185 16.6293 29.1185 16.6293 28.1953 16.5938C26.6296 16.6339 25.3315 17.3228 24.2158 18.3848C23.0361 19.6292 22.59 21.1517 22.6233 22.8323C22.6699 24.1233 23.114 25.4077 23.6179 26.5872C23.6953 26.7891 23.6953 26.7891 23.6953 27C22.8673 27.3502 22.0391 27.7 21.2107 28.0493C20.8364 28.2071 20.4622 28.3651 20.0881 28.5234C19.7371 28.6719 19.386 28.8201 19.0348 28.968C18.9017 29.0241 18.7686 29.0804 18.6355 29.1368C18.45 29.2154 18.2643 29.2936 18.0786 29.3717C17.996 29.4068 17.996 29.4068 17.9119 29.4427C17.5319 29.6016 17.5319 29.6016 17.2969 29.6016C17.2969 24.7057 17.2969 19.8098 17.2969 14.7656C18.4822 14.2125 18.4822 14.2125 18.897 14.0416C18.943 14.0226 18.9891 14.0035 19.0365 13.9839C19.1348 13.9432 19.2332 13.9026 19.3317 13.8621C19.6075 13.7485 19.883 13.6341 20.1585 13.5198C20.2462 13.4834 20.2462 13.4834 20.3356 13.4464C21.0334 13.1568 21.7294 12.8626 22.4253 12.5684C22.5591 12.5118 22.6928 12.4553 22.8266 12.3987C23.0974 12.2843 23.3682 12.1698 23.639 12.0553C24.0452 11.8835 24.4514 11.7119 24.8577 11.5403C24.9242 11.5122 24.9908 11.4841 25.0594 11.4551C25.3903 11.3154 25.7213 11.1757 26.0522 11.036C26.1817 10.9814 26.3113 10.9267 26.4408 10.8721C26.5361 10.8319 26.5361 10.8319 26.6333 10.7908C27.0237 10.6261 27.4139 10.4609 27.804 10.2954C28.0551 10.189 28.3063 10.0827 28.5575 9.97642C28.6755 9.92642 28.7936 9.87633 28.9116 9.82615C29.0729 9.75754 29.2343 9.68924 29.3958 9.621C29.4435 9.60064 29.4912 9.58028 29.5403 9.5593C29.8668 9.42188 29.8668 9.42188 30.0234 9.42188Z" fill="white"/>
<path d="M28.4985 18.0393C28.5761 18.0399 28.6537 18.0404 28.7336 18.0409C29.3043 18.0525 29.7817 18.1087 30.3046 18.3513C30.3703 18.3812 30.4359 18.411 30.5035 18.4417C31.6106 18.9968 32.3901 19.872 32.8359 21.0232C32.8649 21.0957 32.8939 21.1682 32.9238 21.2429C33.4317 23.1899 32.5294 25.1732 31.7174 26.9052C31.6459 27.0586 31.5763 27.2127 31.5074 27.3673C30.7953 28.9467 29.874 30.4565 28.9248 31.9041C28.8811 31.9714 28.8811 31.9714 28.8365 32.0402C28.7672 32.1439 28.6927 32.2442 28.6171 32.3435C28.5707 32.3435 28.5243 32.3435 28.4765 32.3435C28.3794 32.2218 28.3794 32.2218 28.2667 32.0491C28.2036 31.9527 28.2036 31.9527 28.1392 31.8544C28.0712 31.7485 28.0712 31.7485 28.0019 31.6404C27.9314 31.5311 27.9314 31.5311 27.8594 31.4195C23.5878 24.7452 23.5878 24.7452 24.1215 21.5462C24.3892 20.3504 25.0895 19.3973 26.0859 18.7029C26.867 18.2401 27.5927 18.0306 28.4985 18.0393Z" fill="white"/>
<path d="M17.2906 3.33145C17.3705 3.36673 17.4505 3.40201 17.5329 3.43836C17.5752 3.45737 17.6176 3.47639 17.6613 3.49598C17.892 3.5995 18.1236 3.701 18.3551 3.80276C18.4046 3.82456 18.454 3.84636 18.505 3.86882C19.1478 4.15146 19.7957 4.42204 20.4434 4.69348C20.619 4.76712 20.7946 4.84078 20.9703 4.91448C21.0758 4.95874 21.1813 5.00295 21.2868 5.04711C21.6407 5.19545 21.6407 5.19545 21.7969 5.27356C21.7969 5.31996 21.7969 5.36637 21.7969 5.41418C20.3401 6.04265 18.8821 6.66768 17.4155 7.27307C16.4737 7.66193 15.5333 8.05386 14.5947 8.45061C14.3977 8.5338 14.2005 8.61669 14.0033 8.69952C13.3791 8.96211 12.7566 9.22759 12.1375 9.50191C11.8475 9.63017 11.557 9.75693 11.2663 9.88358C11.1278 9.94445 10.9896 10.006 10.8517 10.0684C10.6604 10.1549 10.4681 10.2388 10.2755 10.3223C10.1917 10.3614 10.1917 10.3614 10.1061 10.4013C9.80441 10.5289 9.61718 10.5683 9.30084 10.4658C9.19978 10.4244 9.09939 10.3813 9 10.3361C8.93138 10.3089 8.86276 10.2817 8.79207 10.2536C8.7308 10.227 8.66954 10.2004 8.60641 10.1729C8.53397 10.1416 8.46153 10.1103 8.38689 10.0781C8.27055 10.0274 8.27055 10.0274 8.15186 9.97571C7.9793 9.90113 7.80672 9.82661 7.63412 9.75213C7.58782 9.73213 7.54152 9.71212 7.49381 9.6915C6.8311 9.4054 6.16639 9.12398 5.50195 8.84192C5.37432 8.78771 5.24669 8.7335 5.11906 8.67928C4.81897 8.55182 4.51887 8.4244 4.21875 8.29699C4.45141 8.10314 4.69045 7.99617 4.96994 7.88171C5.0406 7.85254 5.0406 7.85254 5.11269 7.82278C5.21564 7.78033 5.31866 7.73805 5.42175 7.69593C5.70811 7.57889 5.99389 7.46046 6.27979 7.34228C6.3406 7.31719 6.40142 7.2921 6.46408 7.26624C7.16898 6.97515 7.87135 6.6781 8.57373 6.38098C8.7077 6.32435 8.84167 6.26774 8.97564 6.21112C9.31464 6.06785 9.65362 5.92452 9.99258 5.78116C10.3263 5.64004 10.66 5.49895 10.9937 5.35788C11.0594 5.33014 11.125 5.3024 11.1926 5.27382C11.5205 5.13519 11.8485 4.99675 12.1767 4.85869C12.3069 4.8039 12.4371 4.7491 12.5673 4.6943C12.6317 4.6672 12.696 4.64009 12.7624 4.61216C13.1754 4.43799 13.5874 4.26167 13.9989 4.08402C14.2781 3.96369 14.5576 3.84426 14.8372 3.72495C14.9699 3.66805 15.1024 3.61072 15.2347 3.55296C15.4176 3.47319 15.601 3.39489 15.7846 3.31689C15.8381 3.29309 15.8917 3.26929 15.9468 3.24477C16.4422 3.03754 16.804 3.11381 17.2906 3.33145Z" fill="white"/>
<path d="M24.8758 6.53481C24.9418 6.56286 25.0079 6.59091 25.0759 6.61982C25.2868 6.70959 25.4974 6.80016 25.708 6.89077C25.8457 6.94951 25.9834 7.00819 26.1211 7.06682C26.4626 7.21237 26.8038 7.3586 27.1448 7.50511C27.4271 7.62633 27.7095 7.7473 27.9919 7.86827C28.2707 7.9877 28.5494 8.1072 28.8281 8.2267C28.5699 8.44859 28.2806 8.56074 27.9693 8.68813C27.9112 8.71227 27.8532 8.73641 27.7933 8.76128C27.6672 8.81369 27.541 8.86591 27.4147 8.91797C27.142 9.03035 26.8698 9.14361 26.5975 9.2568C26.4547 9.31615 26.3119 9.37546 26.1691 9.43473C25.4907 9.71632 24.814 10.0019 24.1376 10.2882C23.2862 10.6486 22.4346 11.0082 21.5818 11.3652C21.5182 11.3919 21.4546 11.4185 21.3891 11.4459C21.074 11.5778 20.7589 11.7094 20.4436 11.8407C19.8806 12.0754 19.3183 12.3115 18.7585 12.5539C18.5107 12.6612 18.2625 12.7678 18.0143 12.8744C17.8976 12.9248 17.781 12.9756 17.6646 13.0268C17.5046 13.0972 17.3441 13.1663 17.1834 13.2351C17.1368 13.256 17.0901 13.277 17.0421 13.2986C16.637 13.4695 16.3987 13.4171 15.9965 13.2692C15.9055 13.2313 15.8146 13.1929 15.7239 13.1541C15.6493 13.1228 15.6493 13.1228 15.5732 13.0909C15.4107 13.0226 15.2486 12.9538 15.0864 12.8849C14.9739 12.8375 14.8615 12.7902 14.7489 12.7429C14.5178 12.6457 14.2868 12.5482 14.0558 12.4505C13.7239 12.3102 13.3916 12.1707 13.0592 12.0315C13.0083 12.0102 12.9574 11.9889 12.905 11.967C12.8058 11.9254 12.7065 11.8839 12.6073 11.8424C12.2485 11.6921 11.8899 11.5414 11.5312 11.3908C11.7895 11.1689 12.0787 11.0567 12.3901 10.9293C12.4482 10.9052 12.5062 10.8811 12.5661 10.8562C12.6922 10.8038 12.8185 10.7515 12.9448 10.6995C13.2172 10.5872 13.4892 10.474 13.7612 10.3609C13.9039 10.3016 14.0466 10.2423 14.1894 10.1831C14.9379 9.87235 15.6846 9.55741 16.4312 9.24184C16.564 9.18573 16.6969 9.12962 16.8297 9.07351C17.5203 8.78174 18.2105 8.48896 18.9001 8.19493C19.3596 7.99904 19.8195 7.80392 20.2795 7.6092C20.5889 7.47813 20.898 7.34639 21.2068 7.21376C21.5396 7.07084 21.8728 6.92906 22.2064 6.788C22.3335 6.73399 22.4605 6.67956 22.5873 6.6247C22.7629 6.54878 22.9391 6.47435 23.1155 6.40023C23.1671 6.37752 23.2187 6.35481 23.2718 6.33141C23.8646 6.08648 24.3162 6.29238 24.8758 6.53481Z" fill="white"/>
<path d="M28.4195 19.5339C28.4965 19.5326 28.4965 19.5326 28.5751 19.5313C29.4019 19.5291 30.1073 19.8373 30.7135 20.3996C31.3223 21.0455 31.6122 21.8645 31.597 22.743C31.4957 23.6914 31.0302 24.3745 30.3259 24.9781C30.099 25.1515 29.8672 25.2792 29.6016 25.383C29.5391 25.408 29.4766 25.433 29.4121 25.4588C28.691 25.66 27.7966 25.6058 27.1407 25.2424C26.3307 24.7298 25.7802 24.0346 25.5507 23.0976C25.4096 22.1867 25.618 21.4123 26.1563 20.6721C26.7408 19.9543 27.4915 19.5347 28.4195 19.5339Z" fill="white"/>
<path d="M29.333 21.2105C29.6352 21.433 29.8832 21.7288 30.0235 22.0782C30.0868 22.5935 30.0642 23.0626 29.7422 23.4844C29.393 23.8552 29.0736 24.0482 28.5601 24.0733C28.1327 24.0625 27.822 23.943 27.5092 23.6498C27.1246 23.2243 27.0368 22.854 27.0486 22.2847C27.0921 21.8711 27.2898 21.6294 27.5933 21.3531C28.1151 20.9403 28.7444 20.8757 29.333 21.2105Z" fill="#5382A2"/>
<path d="M2.03906 7.45312C2.08547 7.47633 2.13187 7.49953 2.17969 7.52344C2.10096 7.59417 2.02177 7.66438 1.94238 7.73438C1.89833 7.77353 1.85428 7.81269 1.8089 7.85303C1.6875 7.94531 1.6875 7.94531 1.54688 7.94531C1.6484 7.67766 1.78239 7.57505 2.03906 7.45312Z" fill="#63481F"/>
</svg>
