<svg width="164" height="141" viewBox="0 0 164 141" fill="none" xmlns="http://www.w3.org/2000/svg">
<g clip-path="url(#clip0_52_512)">
<path d="M125.618 97.6286C125.275 97.6281 124.946 97.4975 124.696 97.2632C124.446 97.029 124.294 96.7086 124.272 96.367L124.072 93.3086C124.048 92.9513 124.168 92.5994 124.404 92.3303C124.64 92.0611 124.974 91.8968 125.331 91.8734L149.307 90.3042C149.686 90.2791 150.065 90.3288 150.424 90.4503C150.783 90.5719 151.114 90.7629 151.399 91.0125C151.684 91.2621 151.917 91.5654 152.085 91.905C152.252 92.2446 152.351 92.614 152.376 92.9919C152.401 93.3698 152.351 93.7488 152.229 94.1074C152.107 94.466 151.916 94.7971 151.666 95.0817C151.416 95.3663 151.112 95.5989 150.772 95.7661C150.432 95.9334 150.063 96.0321 149.684 96.0565L125.708 97.6257C125.678 97.6276 125.648 97.6286 125.618 97.6286Z" fill="#28638B"/>
<path d="M130.346 98.0228C129.996 98.0222 129.661 97.8866 129.409 97.6444C129.158 97.4021 129.01 97.0721 128.997 96.7233L128.826 92.1551C128.819 91.978 128.847 91.8013 128.909 91.6351C128.971 91.4689 129.065 91.3165 129.185 91.1866C129.306 91.0567 129.451 90.9517 129.612 90.8779C129.773 90.804 129.948 90.7625 130.125 90.7559L149.841 90.0195C150.199 90.0061 150.548 90.1354 150.811 90.3789C151.073 90.6225 151.228 90.9602 151.242 91.318L151.412 95.8861C151.419 96.0633 151.391 96.24 151.329 96.4062C151.267 96.5723 151.173 96.7247 151.053 96.8547C150.932 96.9846 150.787 97.0895 150.626 97.1634C150.465 97.2373 150.29 97.2787 150.113 97.2853L130.397 98.0218C130.38 98.0225 130.363 98.0228 130.346 98.0228Z" fill="#28638B"/>
<path d="M153.45 140.133H150.383C150.025 140.132 149.682 139.99 149.428 139.737C149.175 139.484 149.033 139.141 149.032 138.783V113.237C149.033 112.88 149.175 112.537 149.428 112.283C149.682 112.03 150.025 111.888 150.383 111.888H153.45C153.808 111.888 154.151 112.03 154.405 112.283C154.658 112.537 154.8 112.88 154.801 113.237V138.783C154.8 139.141 154.658 139.484 154.405 139.737C154.151 139.99 153.808 140.132 153.45 140.133Z" fill="#28638B"/>
<path d="M146.124 140.133H143.057C142.699 140.132 142.356 139.99 142.102 139.737C141.849 139.484 141.707 139.141 141.706 138.783V113.237C141.707 112.88 141.849 112.537 142.102 112.283C142.356 112.03 142.699 111.888 143.057 111.888H146.124C146.482 111.888 146.825 112.03 147.078 112.283C147.332 112.537 147.474 112.88 147.474 113.237V138.783C147.474 139.141 147.332 139.484 147.078 139.737C146.825 139.99 146.482 140.132 146.124 140.133Z" fill="#28638B"/>
<path d="M148.792 85.2284C154.645 85.2284 159.389 80.4867 159.389 74.6376C159.389 68.7885 154.645 64.0469 148.792 64.0469C142.939 64.0469 138.195 68.7885 138.195 74.6376C138.195 80.4867 142.939 85.2284 148.792 85.2284Z" fill="#28638B"/>
<path d="M143.056 78.2537C142.715 78.1417 142.402 77.9582 142.138 77.7153C141.963 77.5418 141.828 77.3323 141.743 77.1013C141.658 76.8704 141.624 76.6235 141.644 76.3781C141.655 76.2033 141.707 76.0334 141.794 75.8817C141.882 75.73 142.004 75.6006 142.15 75.5037C142.529 75.2607 143.035 75.26 143.551 75.4873L143.532 71.3528L143.947 71.3508L143.97 76.2113L143.65 76.01C143.279 75.777 142.749 75.613 142.374 75.8533C142.281 75.9167 142.205 76.0007 142.15 76.0986C142.095 76.1965 142.064 76.3058 142.058 76.4179C142.044 76.6007 142.069 76.7843 142.133 76.9564C142.196 77.1284 142.296 77.2848 142.425 77.4148C142.884 77.8529 143.554 77.9899 144.317 78.1123L144.251 78.5224C143.845 78.4687 143.445 78.3787 143.056 78.2537Z" fill="#2F2E41"/>
<path d="M139.248 71.1445L139.194 71.5562L141.413 71.849L141.467 71.4373L139.248 71.1445Z" fill="#2F2E41"/>
<path d="M146.252 72.068L146.198 72.4797L148.417 72.7726L148.471 72.3609L146.252 72.068Z" fill="#2F2E41"/>
<path d="M155.702 120.091H139.771C139.376 120.091 138.993 119.958 138.683 119.715C138.372 119.472 138.151 119.132 138.056 118.75C138.009 118.54 138.001 118.323 138.033 118.11C138.033 118.11 141.145 100.645 142.684 92.2579C142.909 91.0353 143.555 89.9301 144.51 89.1345C145.466 88.3389 146.671 87.9033 147.914 87.9036C150.962 87.9036 153.886 89.1137 156.041 91.2676C158.196 93.4216 159.407 96.343 159.407 99.3892V116.389C159.407 116.875 159.311 117.356 159.125 117.806C158.939 118.255 158.666 118.663 158.322 119.007C157.978 119.35 157.57 119.623 157.12 119.809C156.671 119.995 156.189 120.091 155.702 120.091Z" fill="#28638B"/>
<path d="M152.63 117.783C152.514 118.017 152.332 118.211 152.108 118.344C151.883 118.476 151.625 118.541 151.364 118.53L148.3 118.401C148.123 118.394 147.949 118.351 147.788 118.277C147.627 118.202 147.483 118.096 147.363 117.966C147.243 117.835 147.15 117.683 147.089 117.516C147.028 117.35 147 117.173 147.008 116.996L148.019 93.0041C148.035 92.6259 148.125 92.2546 148.285 91.9113C148.444 91.568 148.67 91.2595 148.949 91.0034C149.228 90.7472 149.554 90.5485 149.91 90.4185C150.266 90.2885 150.643 90.2298 151.022 90.2457C151.4 90.2616 151.772 90.3519 152.115 90.5113C152.459 90.6708 152.767 90.8963 153.024 91.1749C153.28 91.4536 153.479 91.78 153.609 92.1355C153.739 92.4909 153.798 92.8685 153.782 93.2467L152.771 117.238C152.763 117.428 152.715 117.614 152.63 117.783Z" fill="#28638B"/>
<path d="M154.198 111.422C154.082 111.656 153.9 111.85 153.676 111.983C153.451 112.115 153.193 112.18 152.933 112.169L147.699 111.949C147.341 111.933 147.004 111.777 146.762 111.513C146.52 111.25 146.392 110.901 146.406 110.543L147.237 90.8428C147.244 90.6657 147.287 90.4918 147.361 90.331C147.436 90.1703 147.542 90.0258 147.672 89.9058C147.803 89.7859 147.956 89.6928 148.122 89.6319C148.289 89.571 148.466 89.5435 148.643 89.551L153.877 89.7713C154.054 89.7788 154.228 89.821 154.389 89.8957C154.55 89.9704 154.694 90.076 154.814 90.2065C154.934 90.337 155.028 90.4898 155.088 90.6563C155.149 90.8228 155.177 90.9996 155.169 91.1767L154.339 110.877C154.331 111.067 154.283 111.253 154.198 111.422Z" fill="#1C4663"/>
<path d="M148.203 67.7583C145.917 68.6592 142.463 69.6168 140.956 66.9422C140.662 66.3955 140.488 65.7926 140.445 65.1734C140.402 64.5542 140.492 63.933 140.708 63.3511C141.163 62.0893 142.132 61.0498 143.235 60.3152C145.302 58.9391 147.917 58.5645 150.324 59.0964C151.534 59.3597 152.683 59.853 153.707 60.5494C154.871 61.3471 155.691 62.4239 156.515 63.5508C157.358 64.703 158.312 65.865 159.696 66.3697C160.828 66.7824 162.247 66.5717 163.048 65.6115C163.235 65.3872 163.379 65.1301 163.471 64.8532C163.591 64.5003 163.033 64.3488 162.913 64.6996C162.493 65.9354 160.944 66.2124 159.85 65.8123C158.406 65.2842 157.494 63.9122 156.628 62.7277C155.8 61.5952 154.885 60.5983 153.689 59.8472C152.615 59.1769 151.424 58.7126 150.179 58.4778C147.673 58.0014 144.975 58.4236 142.851 59.8785C141.68 60.6444 140.763 61.7397 140.216 63.0261C139.729 64.2433 139.742 65.6029 140.25 66.811C140.505 67.413 140.904 67.9437 141.411 68.3568C141.919 68.7699 142.519 69.053 143.161 69.1815C144.561 69.4651 146.016 69.1388 147.345 68.6891C147.686 68.5739 148.022 68.4475 148.357 68.3157C148.699 68.1808 148.55 67.6216 148.203 67.7583Z" fill="#2F2E41"/>
<path d="M9.27816 0H81.8297C84.2896 0.00276809 86.6479 0.980573 88.3873 2.71889C90.1267 4.45721 91.1051 6.81409 91.1079 9.27244V48.9393C91.1051 51.3976 90.1267 53.7545 88.3873 55.4928C86.6479 57.2311 84.2896 58.2089 81.8297 58.2117H9.27816C6.81829 58.2089 4.45996 57.2311 2.72056 55.4928C0.981169 53.7545 0.00276419 51.3976 0 48.9393V9.27244C0.00276367 6.81409 0.981169 4.45721 2.72056 2.71889C4.45996 0.980573 6.81829 0.00276809 9.27816 0Z" fill="#F2F2F2"/>
<path d="M9.27801 2.66943H81.8297C83.5814 2.6714 85.2608 3.36771 86.4995 4.60561C87.7382 5.8435 88.4349 7.52189 88.4369 9.27254V48.9394C88.4349 50.69 87.7382 52.3684 86.4995 53.6063C85.2608 54.8442 83.5814 55.5405 81.8297 55.5425H9.27801C7.52629 55.5405 5.84689 54.8442 4.60824 53.6063C3.3696 52.3684 2.67286 50.69 2.6709 48.9394V9.27254C2.67286 7.5219 3.36959 5.84353 4.60824 4.60563C5.84689 3.36774 7.52629 2.67142 9.27801 2.66943Z" fill="white"/>
<path d="M9.98602 72.4139C9.76709 72.4132 9.55044 72.3694 9.34848 72.285C9.04703 72.1639 8.78919 71.9547 8.60869 71.6847C8.42819 71.4148 8.33346 71.0967 8.33688 70.772V57.0594L26.6296 56.4443L11.1344 71.93C10.9845 72.0826 10.8059 72.2039 10.6087 72.287C10.4116 72.3701 10.1999 72.4132 9.98602 72.4139Z" fill="#F2F2F2"/>
<path d="M72.7431 12.5359H18.1879C16.0037 12.5359 14.233 14.3055 14.233 16.4883V16.4884C14.233 18.6712 16.0037 20.4408 18.1879 20.4408H72.7431C74.9273 20.4408 76.698 18.6712 76.698 16.4883C76.698 14.3055 74.9273 12.5359 72.7431 12.5359Z" fill="#F2F2F2"/>
<path d="M72.8315 25.1533H18.2763C16.0921 25.1533 14.3214 26.9229 14.3214 29.1058V29.1058C14.3214 31.2887 16.0921 33.0582 18.2763 33.0582H72.8315C75.0157 33.0582 76.7864 31.2887 76.7864 29.1058C76.7864 26.9229 75.0157 25.1533 72.8315 25.1533Z" fill="#F2F2F2"/>
<path d="M72.92 37.7708H18.3648C16.1806 37.7708 14.4099 39.5403 14.4099 41.7232V41.7232C14.4099 43.9061 16.1806 45.6757 18.3648 45.6757H72.92C75.1042 45.6757 76.8749 43.9061 76.8749 41.7232C76.8749 39.5403 75.1042 37.7708 72.92 37.7708Z" fill="#F2F2F2"/>
<path d="M123.843 20.2307H51.2911C48.8312 20.2335 46.4729 21.2113 44.7335 22.9496C42.9941 24.6879 42.0157 27.0448 42.0129 29.5032V69.17C42.0157 71.6283 42.9941 73.9852 44.7335 75.7235C46.4729 77.4619 48.8312 78.4397 51.2911 78.4424H123.843C126.303 78.4397 128.661 77.4619 130.4 75.7235C132.14 73.9852 133.118 71.6283 133.121 69.17V29.5032C133.118 27.0448 132.14 24.6879 130.4 22.9496C128.661 21.2113 126.303 20.2335 123.843 20.2307Z" fill="#E6E6E6"/>
<path d="M123.843 22.9001H51.2911C49.5393 22.9021 47.8599 23.5984 46.6212 24.8363C45.3826 26.0742 44.6858 27.7526 44.6838 29.5033V69.1701C44.6858 70.9207 45.3826 72.5991 46.6212 73.837C47.8599 75.0749 49.5393 75.7712 51.2911 75.7732H123.843C125.594 75.7712 127.274 75.0749 128.512 73.837C129.751 72.5991 130.448 70.9207 130.45 69.1701V29.5033C130.448 27.7526 129.751 26.0742 128.512 24.8363C127.274 23.5985 125.594 22.9021 123.843 22.9001Z" fill="white"/>
<path d="M118.323 92.1605L102.828 76.6748L121.121 77.2899V91.0025C121.124 91.3271 121.03 91.6452 120.849 91.9152C120.669 92.1852 120.411 92.3944 120.109 92.5154C119.907 92.5999 119.691 92.6437 119.472 92.6443C119.258 92.6436 119.046 92.6005 118.849 92.5175C118.652 92.4344 118.473 92.3131 118.323 92.1605Z" fill="#E6E6E6"/>
<path d="M71.5649 54.3462C74.3333 54.3462 76.5775 52.1033 76.5775 49.3367C76.5775 46.57 74.3333 44.3271 71.5649 44.3271C68.7965 44.3271 66.5522 46.57 66.5522 49.3367C66.5522 52.1033 68.7965 54.3462 71.5649 54.3462Z" fill="#28638B"/>
<path d="M87.5668 54.3462C90.3352 54.3462 92.5794 52.1033 92.5794 49.3367C92.5794 46.57 90.3352 44.3271 87.5668 44.3271C84.7984 44.3271 82.5542 46.57 82.5542 49.3367C82.5542 52.1033 84.7984 54.3462 87.5668 54.3462Z" fill="#28638B"/>
<path d="M103.569 54.3462C106.337 54.3462 108.581 52.1033 108.581 49.3367C108.581 46.57 106.337 44.3271 103.569 44.3271C100.8 44.3271 98.556 46.57 98.556 49.3367C98.556 52.1033 100.8 54.3462 103.569 54.3462Z" fill="#28638B"/>
</g>
<defs>
<clipPath id="clip0_52_512">
<rect width="163.488" height="140.133" fill="white"/>
</clipPath>
</defs>
</svg>
