<svg width="74" height="70" viewBox="0 0 74 70" fill="none" xmlns="http://www.w3.org/2000/svg">
<path fill-rule="evenodd" clip-rule="evenodd" d="M2.73265 32.6423H17.7666C18.7132 32.6423 19.4876 31.8679 19.4876 30.9213V15.8873C19.4876 14.9408 18.7132 14.1663 17.7666 14.1663H2.73265C1.78612 14.1663 1.01172 14.9408 1.01172 15.8873V30.9213C1.01172 31.8679 1.78612 32.6423 2.73265 32.6423Z" fill="#FFDC6E"/>
<path fill-rule="evenodd" clip-rule="evenodd" d="M16.209 32.6423H17.7663C18.7128 32.6423 19.4872 31.8679 19.4872 30.9213V15.8873C19.4872 14.9408 18.7128 14.1663 17.7663 14.1663H16.209V32.6423Z" fill="#FFCA28"/>
<path fill-rule="evenodd" clip-rule="evenodd" d="M12.9948 21.0863V14.1663H7.50464V21.0863C7.50464 21.6312 7.8797 22.0754 8.3396 22.0754H12.1601C12.6199 22.0756 12.9948 21.6312 12.9948 21.0863Z" fill="#F7524B"/>
<path fill-rule="evenodd" clip-rule="evenodd" d="M52.5645 33.3732H60.1308L63.7312 50.0187H52.5645V33.3732Z" fill="#F7524B"/>
<path fill-rule="evenodd" clip-rule="evenodd" d="M52.5645 33.3732H60.1308L61.5871 40.106L52.5645 36.6996V33.3732Z" fill="#CB413D"/>
<path fill-rule="evenodd" clip-rule="evenodd" d="M10.915 38.4969H34.8136C36.4093 38.4969 37.7147 37.1915 37.7147 35.5959C37.7147 34.0001 36.4093 32.6947 34.8136 32.6947H13.8164C12.2206 32.6947 10.915 34.0001 10.915 35.5959V38.4969Z" fill="#404049"/>
<path fill-rule="evenodd" clip-rule="evenodd" d="M28.4467 58.0336C28.4467 64.0969 23.5314 69.0123 17.468 69.0123C11.4046 69.0123 6.48926 64.0971 6.48926 58.0336H28.4467Z" fill="#404049"/>
<path fill-rule="evenodd" clip-rule="evenodd" d="M22.9368 58.0336C22.9368 61.0538 20.4884 63.5022 17.4681 63.5022C14.4479 63.5022 11.9995 61.0538 11.9995 58.0336H22.9368Z" fill="#F0F0FC"/>
<path fill-rule="evenodd" clip-rule="evenodd" d="M70.8598 58.0336C70.8598 64.0969 65.9445 69.0123 59.8811 69.0123C53.8177 69.0123 48.9023 64.0969 48.9023 58.0336H70.8598Z" fill="#404049"/>
<path fill-rule="evenodd" clip-rule="evenodd" d="M65.3491 58.0336C65.3491 61.0538 62.9008 63.5022 59.8805 63.5022C56.8604 63.5022 54.4119 61.0538 54.4119 58.0336H65.3491Z" fill="#F0F0FC"/>
<path fill-rule="evenodd" clip-rule="evenodd" d="M4.36035 58.0336H35.2513V37.2863H14.7341C9.02857 37.2863 4.36035 41.9543 4.36035 47.6598V58.0336Z" fill="#F7524B"/>
<path fill-rule="evenodd" clip-rule="evenodd" d="M32.6218 50.394H50.9059V58.0338H32.6218V50.394Z" fill="#F7524B"/>
<path fill-rule="evenodd" clip-rule="evenodd" d="M61.9817 24.9542L53.9836 26.1682C53.1615 26.293 52.5645 26.9876 52.5645 27.8191V34.4269L61.9817 35.8563C64.4734 36.2346 66.5486 33.4033 66.5486 30.4053C66.5486 27.5446 64.5451 24.5653 61.9817 24.9542Z" fill="#EF444E"/>
<path fill-rule="evenodd" clip-rule="evenodd" d="M62.0881 35.8709C64.5323 36.154 66.5487 33.3611 66.5487 30.4057C66.5487 27.5846 64.6004 24.6485 62.0881 24.9406V35.8709Z" fill="#FFDC6E"/>
<path fill-rule="evenodd" clip-rule="evenodd" d="M17.4682 44.9259C24.7075 44.9259 30.576 50.7945 30.576 58.0337H4.36035C4.36035 50.7945 10.2289 44.9259 17.4682 44.9259Z" fill="#E14844"/>
<path fill-rule="evenodd" clip-rule="evenodd" d="M21.8608 26.6656L28.9472 30.0386L37.7997 25.7222L43.2749 30.0863L55.7946 33.77L57.5784 30.7692C53.5138 29.4121 50.2485 28.0927 46.1678 26.4714L43.0951 22.5146C43.0951 22.5146 43.1961 18.8704 41.1203 16.9639C39.0446 15.0574 39.0317 15.0094 39.0317 15.0094C27.8683 15.429 23.6085 20.6337 21.8608 26.6656Z" fill="#FFDC6E"/>
<path fill-rule="evenodd" clip-rule="evenodd" d="M56.1434 34.3235C57.3942 34.3235 58.4143 33.3034 58.4143 32.0526C58.4143 30.8018 57.3942 29.7817 56.1434 29.7817C54.8927 29.7817 53.8726 30.8018 53.8726 32.0526C53.8726 33.3034 54.8927 34.3235 56.1434 34.3235Z" fill="#484A50"/>
<path fill-rule="evenodd" clip-rule="evenodd" d="M22.7104 34.1537L37.9182 39.4055L37.7776 52.8338H42.7105L43.1452 37.004C43.1864 35.5065 42.3285 34.2202 40.9625 33.6058L22.3448 25.2312L20.7064 28.8734C19.8056 30.8762 20.634 33.437 22.7104 34.1537Z" fill="#484A50"/>
<path fill-rule="evenodd" clip-rule="evenodd" d="M37.7672 52.1637L37.747 53.8749C37.7301 55.3165 38.9619 56.4845 40.4036 56.461L42.3772 56.4288L44.7831 56.4134C45.8182 56.4067 46.6569 55.557 46.6504 54.522L46.6487 54.2697C46.6417 53.1773 45.8027 52.2754 44.7397 52.1637H42.6838H37.7672Z" fill="#FFDC6E"/>
<path fill-rule="evenodd" clip-rule="evenodd" d="M41.5779 56.4415L42.3774 56.4283L44.7833 56.4129C45.8184 56.4062 46.6571 55.5565 46.6506 54.5215L46.6489 54.2692C46.642 53.1768 45.803 52.2749 44.7399 52.1632H42.684H41.578V56.4415H41.5779Z" fill="#FFCA28"/>
<path fill-rule="evenodd" clip-rule="evenodd" d="M59.8804 44.9259C67.1195 44.9259 72.9882 50.7945 72.9882 58.0337H46.7727C46.7727 50.7945 52.6413 44.9259 59.8804 44.9259Z" fill="#E14844"/>
<path fill-rule="evenodd" clip-rule="evenodd" d="M17.4682 44.9259C24.7075 44.9259 30.576 50.7945 30.576 58.0337H24.8192C24.6355 51.9783 20.5984 46.8924 15.0769 45.1443C15.8522 45.0012 16.6513 44.9259 17.4682 44.9259Z" fill="#CB413D"/>
<path fill-rule="evenodd" clip-rule="evenodd" d="M59.8803 44.9259C67.1196 44.9259 72.9881 50.7945 72.9881 58.0337H67.2313C67.0476 51.9783 63.0105 46.8924 57.489 45.1443C58.2644 45.0012 59.0635 44.9259 59.8803 44.9259Z" fill="#CB413D"/>
<path fill-rule="evenodd" clip-rule="evenodd" d="M56.1433 29.7817C57.3974 29.7817 58.414 30.7984 58.414 32.0525C58.414 33.3066 57.3974 34.3232 56.1433 34.3232C55.9887 34.3232 55.8376 34.3077 55.6917 34.2782C56.7294 34.0688 57.5107 33.1519 57.5107 32.0525C57.5107 30.953 56.7294 30.0361 55.6917 29.8267C55.8375 29.7972 55.9887 29.7817 56.1433 29.7817Z" fill="#404049"/>
<path fill-rule="evenodd" clip-rule="evenodd" d="M29.4357 29.8006L39.6621 34.4007C41.0281 35.0151 41.8808 36.3014 41.8448 37.7991L41.499 52.1639H42.7292L43.1456 37.0041C43.1792 35.6236 42.4568 34.4225 41.2735 33.762C41.2534 33.7509 41.2332 33.7398 41.2128 33.7289H41.2127C41.1924 33.7181 41.1719 33.7072 41.1514 33.6967C41.1309 33.6861 41.11 33.6757 41.0892 33.6655C41.0684 33.6552 41.0475 33.6451 41.0264 33.6351C41.0053 33.6251 40.984 33.6155 40.9628 33.6058L22.3451 25.2312L21.832 26.372L29.4357 29.8006Z" fill="#404049"/>
<path fill-rule="evenodd" clip-rule="evenodd" d="M28.9409 17.4051C31.2145 16.4611 34.0278 15.8633 37.5147 15.7322C38.0649 17.6685 39.6036 19.6259 41.2696 20.7406C41.6099 22.087 41.578 23.2374 41.578 23.2374L44.6507 27.1943C47.8239 28.4549 50.9896 29.7269 54.2118 30.8584C54.456 30.4643 54.8177 30.1503 55.2478 29.9655C52.1911 28.8785 49.1828 27.669 46.1683 26.4714L43.0956 22.5146C43.0956 22.5146 43.1261 21.4134 42.8088 20.105C42.5488 19.0331 42.0555 17.8224 41.1209 16.9639C39.0451 15.0574 39.0322 15.0094 39.0322 15.0094C38.9204 15.0136 38.8092 15.0184 38.6988 15.0234C34.5549 15.2171 31.38 16.0811 28.9409 17.4051Z" fill="#FFCA28"/>
<path fill-rule="evenodd" clip-rule="evenodd" d="M47.0347 6.70483C50.4988 7.04174 53.034 10.1231 52.6971 13.5873C52.3602 17.0515 49.2788 19.5868 45.8147 19.2499C42.3504 18.913 39.8152 15.8315 40.1521 12.3673L46.4248 12.9773L47.0347 6.70483Z" fill="#F6DCCD"/>
<path fill-rule="evenodd" clip-rule="evenodd" d="M47.198 5.02539C50.8632 5.3818 53.7079 8.16157 54.3009 11.624C54.3916 12.1541 54.2441 12.6488 53.8778 13.0428C53.5116 13.4368 53.0287 13.6198 52.4934 13.5678L48.0866 13.1392C47.1713 13.0502 46.3521 13.7241 46.2631 14.6395L45.8347 19.0454C45.7825 19.581 45.5096 20.0198 45.0523 20.3034C44.595 20.5869 44.0806 20.6364 43.5777 20.445C40.2949 19.1955 38.1161 15.8688 38.4724 12.2043C38.8996 7.81253 42.8063 4.5983 47.198 5.02539Z" fill="#E14844"/>
<path fill-rule="evenodd" clip-rule="evenodd" d="M47.198 5.02538C50.8632 5.38179 53.7078 8.16156 54.3008 11.624C54.3916 12.1541 54.244 12.6488 53.8778 13.0428C53.5588 13.3859 53.1512 13.5691 52.6976 13.5761C52.6981 13.5393 52.699 13.5024 52.699 13.4654C52.699 9.15493 49.2048 5.66074 44.8943 5.66074C44.0325 5.66074 43.2036 5.80079 42.4285 6.05863C43.8225 5.25201 45.4727 4.85758 47.198 5.02538Z" fill="#CB413D"/>
</svg>
