<svg width="75" height="75" viewBox="0 0 75 75" fill="none" xmlns="http://www.w3.org/2000/svg">
<path d="M48.8339 29.9443L33.7225 45.0558L26.1669 37.5001M42.2079 5.23326L46.8205 9.16412C47.9826 10.1544 49.4255 10.7532 50.9475 10.8746L56.9884 11.3561C60.54 11.6395 63.3611 14.4588 63.6446 18.0105L64.1249 24.0525C64.2463 25.5745 64.8472 27.0194 65.8375 28.1815L69.7666 32.7929C72.0776 35.5047 72.0779 39.4937 69.7669 42.2056L65.8378 46.8177C64.8475 47.9797 64.2475 49.4253 64.126 50.9473L63.6427 56.9882C63.3593 60.5399 60.5426 63.361 56.9909 63.6444L50.9479 64.1266C49.4259 64.2481 47.9816 64.8452 46.8195 65.8355L42.2079 69.7665C39.4961 72.0775 35.5046 72.078 32.7928 69.767L28.1812 65.8359C27.0191 64.8456 25.5749 64.2474 24.0529 64.1259L18.0098 63.6444C14.4582 63.361 11.6414 60.5406 11.358 56.9889L10.8747 50.9476C10.7533 49.4257 10.1532 47.9814 9.16289 46.8193L5.23379 42.2058C2.92279 39.494 2.92171 35.5062 5.2327 32.7943L9.16534 28.1808C10.1557 27.0188 10.75 25.5745 10.8714 24.0525L11.3547 18.0112C11.6381 14.4595 14.463 11.6391 18.0146 11.3557L24.051 10.8742C25.573 10.7528 27.018 10.1546 28.1801 9.16423L32.7932 5.23326C35.505 2.92225 39.4961 2.92225 42.2079 5.23326Z" stroke="#34C759" stroke-width="7" stroke-linecap="round" stroke-linejoin="round"/>
</svg>
