<svg width="60" height="60" viewBox="0 0 60 60" fill="none" xmlns="http://www.w3.org/2000/svg">
<path d="M58.665 26.1675L54.615 21.4275C53.865 20.5275 53.235 18.8475 53.235 17.6475V12.5475C53.235 9.3675 50.625 6.7575 47.445 6.7575H42.345C41.145 6.7575 39.435 6.1275 38.535 5.3775L33.795 1.3275C31.725 -0.4425 28.335 -0.4425 26.265 1.3275L21.465 5.3775C20.565 6.1275 18.885 6.7575 17.685 6.7575H12.495C9.315 6.7575 6.705 9.3675 6.705 12.5475V17.6475C6.705 18.8175 6.105 20.4975 5.355 21.3975L1.305 26.1675C-0.435 28.2675 -0.435 31.6275 1.305 33.6675L5.355 38.4375C6.105 39.3075 6.705 41.0175 6.705 42.1875V47.3175C6.705 50.4975 9.315 53.1075 12.495 53.1075H17.715C18.885 53.1075 20.595 53.7375 21.495 54.4875L26.235 58.5375C28.305 60.3075 31.695 60.3075 33.765 58.5375L38.505 54.4875C39.405 53.7375 41.085 53.1075 42.285 53.1075H47.385C50.565 53.1075 53.175 50.4975 53.175 47.3175V42.2175C53.175 41.0175 53.805 39.3375 54.555 38.4375L58.605 33.6975C60.435 31.6575 60.435 28.2675 58.665 26.1675ZM27.735 18.3375C27.735 17.1075 28.755 16.0875 29.985 16.0875C31.215 16.0875 32.235 17.1075 32.235 18.3375V32.8275C32.235 34.0575 31.215 35.0775 29.985 35.0775C28.755 35.0775 27.735 34.0575 27.735 32.8275V18.3375ZM29.985 44.5575C28.335 44.5575 26.985 43.2075 26.985 41.5575C26.985 39.9075 28.305 38.5575 29.985 38.5575C31.635 38.5575 32.985 39.9075 32.985 41.5575C32.985 43.2075 31.665 44.5575 29.985 44.5575Z" fill="#FDBA45"/>
</svg>
